<?xml version="1.0" encoding="UTF-8" standalone="no"?>
<svg xmlns="http://www.w3.org/2000/svg" xmlns:xlink="http://www.w3.org/1999/xlink" contentScriptType="application/ecmascript" contentStyleType="text/css" height="1498px" preserveAspectRatio="none" style="width:319px;height:1498px;background:#FFFFFF;" version="1.1" viewBox="0 0 319 1498" width="319px" zoomAndPan="magnify"><defs/><g><ellipse cx="161" cy="20" fill="#222222" rx="10" ry="10" style="stroke:#222222;stroke-width:1.0;"/><rect fill="none" height="438.9175" style="stroke:#000000;stroke-width:1.5;" width="294" x="12.5" y="40"/><path d="M199.5,40 L199.5,49.2969 L189.5,59.2969 L12.5,59.2969 " fill="none" style="stroke:#000000;stroke-width:1.5;"/><text fill="#000000" font-family="sans-serif" font-size="14" lengthAdjust="spacing" textLength="177" x="15.5" y="53.9951">[Base]Initialization State</text><rect fill="#F1F1F1" height="33.9688" rx="12.5" ry="12.5" style="stroke:#181818;stroke-width:0.5;" width="216" x="53" y="76.2969"/><text fill="#000000" font-family="sans-serif" font-size="12" lengthAdjust="spacing" textLength="196" x="63" y="97.4355">[Base]InitializationState::OnEnter</text><rect fill="#F1F1F1" height="33.9688" rx="12.5" ry="12.5" style="stroke:#181818;stroke-width:0.5;" width="152" x="85" y="130.2656"/><text fill="#000000" font-family="sans-serif" font-size="12" lengthAdjust="spacing" textLength="132" x="95" y="151.4043">CustomState::OnEnter</text><rect fill="#F1F1F1" height="33.9688" rx="12.5" ry="12.5" style="stroke:#181818;stroke-width:0.5;" width="229" x="46.5" y="239.9448"/><text fill="#000000" font-family="sans-serif" font-size="12" lengthAdjust="spacing" textLength="209" x="56.5" y="261.0835">[Base]InitializationState::OnUpdate</text><rect fill="#F1F1F1" height="33.9688" rx="12.5" ry="12.5" style="stroke:#181818;stroke-width:0.5;" width="165" x="78.5" y="303.0112"/><text fill="#000000" font-family="sans-serif" font-size="12" lengthAdjust="spacing" textLength="145" x="88.5" y="324.1499">CustomState::OnUpdate</text><polygon fill="#F1F1F1" points="80,184.2344,242,184.2344,254,196.2344,242,208.2344,80,208.2344,68,196.2344,80,184.2344" style="stroke:#181818;stroke-width:0.5;"/><text fill="#000000" font-family="sans-serif" font-size="11" lengthAdjust="spacing" textLength="14" x="165" y="218.4448">no</text><text fill="#000000" font-family="sans-serif" font-size="11" lengthAdjust="spacing" textLength="162" x="80" y="200.0425">did both states return 'true'?</text><text fill="#000000" font-family="sans-serif" font-size="11" lengthAdjust="spacing" textLength="21" x="47" y="193.6401">yes</text><rect fill="#F1F1F1" height="33.9688" rx="12.5" ry="12.5" style="stroke:#181818;stroke-width:0.5;" width="142" x="90" y="378.98"/><text fill="#000000" font-family="sans-serif" font-size="12" lengthAdjust="spacing" textLength="122" x="100" y="400.1187">CustomState::OnExit</text><rect fill="#F1F1F1" height="33.9688" rx="12.5" ry="12.5" style="stroke:#181818;stroke-width:0.5;" width="206" x="58" y="432.9487"/><text fill="#000000" font-family="sans-serif" font-size="12" lengthAdjust="spacing" textLength="186" x="68" y="454.0874">[Base]InitializationState::OnExit</text><rect fill="none" height="438.9175" style="stroke:#000000;stroke-width:1.5;" width="285" x="17" y="488.9175"/><path d="M129,488.9175 L129,498.2144 L119,508.2144 L17,508.2144 " fill="none" style="stroke:#000000;stroke-width:1.5;"/><text fill="#000000" font-family="sans-serif" font-size="14" lengthAdjust="spacing" textLength="102" x="20" y="502.9126">Running State</text><rect fill="#F1F1F1" height="33.9688" rx="12.5" ry="12.5" style="stroke:#181818;stroke-width:0.5;" width="153" x="84.5" y="525.2144"/><text fill="#000000" font-family="sans-serif" font-size="12" lengthAdjust="spacing" textLength="133" x="94.5" y="546.353">RunningState::OnEnter</text><rect fill="#F1F1F1" height="33.9688" rx="12.5" ry="12.5" style="stroke:#181818;stroke-width:0.5;" width="152" x="85" y="579.1831"/><text fill="#000000" font-family="sans-serif" font-size="12" lengthAdjust="spacing" textLength="132" x="95" y="600.3218">CustomState::OnEnter</text><rect fill="#F1F1F1" height="33.9688" rx="12.5" ry="12.5" style="stroke:#181818;stroke-width:0.5;" width="166" x="78" y="688.8623"/><text fill="#000000" font-family="sans-serif" font-size="12" lengthAdjust="spacing" textLength="146" x="88" y="710.001">RunningState::OnUpdate</text><rect fill="#F1F1F1" height="33.9688" rx="12.5" ry="12.5" style="stroke:#181818;stroke-width:0.5;" width="165" x="78.5" y="751.9287"/><text fill="#000000" font-family="sans-serif" font-size="12" lengthAdjust="spacing" textLength="145" x="88.5" y="773.0674">CustomState::OnUpdate</text><polygon fill="#F1F1F1" points="63,633.1519,259,633.1519,271,645.1519,259,657.1519,63,657.1519,51,645.1519,63,633.1519" style="stroke:#181818;stroke-width:0.5;"/><text fill="#000000" font-family="sans-serif" font-size="11" lengthAdjust="spacing" textLength="14" x="165" y="667.3623">no</text><text fill="#000000" font-family="sans-serif" font-size="11" lengthAdjust="spacing" textLength="196" x="63" y="648.96">did the running state return 'true'?</text><text fill="#000000" font-family="sans-serif" font-size="11" lengthAdjust="spacing" textLength="21" x="30" y="642.5576">yes</text><rect fill="#F1F1F1" height="33.9688" rx="12.5" ry="12.5" style="stroke:#181818;stroke-width:0.5;" width="142" x="90" y="827.8975"/><text fill="#000000" font-family="sans-serif" font-size="12" lengthAdjust="spacing" textLength="122" x="100" y="849.0361">CustomState::OnExit</text><rect fill="#F1F1F1" height="33.9688" rx="12.5" ry="12.5" style="stroke:#181818;stroke-width:0.5;" width="143" x="89.5" y="881.8662"/><text fill="#000000" font-family="sans-serif" font-size="12" lengthAdjust="spacing" textLength="123" x="99.5" y="903.0049">RunningState::OnExit</text><rect fill="none" height="507.5303" style="stroke:#000000;stroke-width:1.5;" width="297" x="11" y="937.835"/><path d="M132,937.835 L132,947.1318 L122,957.1318 L11,957.1318 " fill="none" style="stroke:#000000;stroke-width:1.5;"/><text fill="#000000" font-family="sans-serif" font-size="14" lengthAdjust="spacing" textLength="111" x="14" y="951.8301">ShutdownState</text><rect fill="#F1F1F1" height="33.9688" rx="12.5" ry="12.5" style="stroke:#181818;stroke-width:0.5;" width="152" x="85" y="974.1318"/><text fill="#000000" font-family="sans-serif" font-size="12" lengthAdjust="spacing" textLength="132" x="95" y="995.2705">CustomState::OnEnter</text><rect fill="#F1F1F1" height="33.9688" rx="12.5" ry="12.5" style="stroke:#181818;stroke-width:0.5;" width="166" x="78" y="1028.1006"/><text fill="#000000" font-family="sans-serif" font-size="12" lengthAdjust="spacing" textLength="146" x="88" y="1049.2393">ShutdownState::OnEnter</text><rect fill="#F1F1F1" height="33.9688" rx="12.5" ry="12.5" style="stroke:#181818;stroke-width:0.5;" width="165" x="78.5" y="1137.7798"/><text fill="#000000" font-family="sans-serif" font-size="12" lengthAdjust="spacing" textLength="145" x="88.5" y="1158.9185">CustomState::OnUpdate</text><polygon fill="#F1F1F1" points="63.5,1082.0693,258.5,1082.0693,270.5,1094.0693,258.5,1106.0693,63.5,1106.0693,51.5,1094.0693,63.5,1082.0693" style="stroke:#181818;stroke-width:0.5;"/><text fill="#000000" font-family="sans-serif" font-size="11" lengthAdjust="spacing" textLength="14" x="165" y="1116.2798">no</text><text fill="#000000" font-family="sans-serif" font-size="11" lengthAdjust="spacing" textLength="195" x="63.5" y="1097.8774">did the custom state return 'true'?</text><text fill="#000000" font-family="sans-serif" font-size="11" lengthAdjust="spacing" textLength="21" x="30.5" y="1091.4751">yes</text><rect fill="#F1F1F1" height="33.9688" rx="12.5" ry="12.5" style="stroke:#181818;stroke-width:0.5;" width="179" x="71.5" y="1269.459"/><text fill="#000000" font-family="sans-serif" font-size="12" lengthAdjust="spacing" textLength="159" x="81.5" y="1290.5977">ShutdownState::OnUpdate</text><polygon fill="#F1F1F1" points="57,1213.7485,265,1213.7485,277,1225.7485,265,1237.7485,57,1237.7485,45,1225.7485,57,1213.7485" style="stroke:#181818;stroke-width:0.5;"/><text fill="#000000" font-family="sans-serif" font-size="11" lengthAdjust="spacing" textLength="14" x="165" y="1247.959">no</text><text fill="#000000" font-family="sans-serif" font-size="11" lengthAdjust="spacing" textLength="208" x="57" y="1229.5566">did the shutdown state return 'true'?</text><text fill="#000000" font-family="sans-serif" font-size="11" lengthAdjust="spacing" textLength="21" x="24" y="1223.1543">yes</text><rect fill="#F1F1F1" height="33.9688" rx="12.5" ry="12.5" style="stroke:#181818;stroke-width:0.5;" width="142" x="90" y="1345.4277"/><text fill="#000000" font-family="sans-serif" font-size="12" lengthAdjust="spacing" textLength="122" x="100" y="1366.5664">CustomState::OnExit</text><rect fill="#F1F1F1" height="33.9688" rx="12.5" ry="12.5" style="stroke:#181818;stroke-width:0.5;" width="156" x="83" y="1399.3965"/><text fill="#000000" font-family="sans-serif" font-size="12" lengthAdjust="spacing" textLength="136" x="93" y="1420.5352">ShutdownState::OnExit</text><ellipse cx="161" cy="1476.3652" rx="11" ry="11" style="stroke:#222222;stroke-width:1.0;fill:none;"/><ellipse cx="161" cy="1476.3652" fill="#222222" rx="6" ry="6" style="stroke:#111111;stroke-width:1.0;"/><line style="stroke:#181818;stroke-width:1.0;" x1="161" x2="161" y1="110.2656" y2="130.2656"/><polygon fill="#181818" points="157,120.2656,161,130.2656,165,120.2656,161,124.2656" style="stroke:#181818;stroke-width:1.0;"/><line style="stroke:#181818;stroke-width:1.0;" x1="161" x2="161" y1="273.9136" y2="303.0112"/><polygon fill="#181818" points="157,293.0112,161,303.0112,165,293.0112,161,297.0112" style="stroke:#181818;stroke-width:1.0;"/><line style="stroke:#181818;stroke-width:1.0;" x1="161" x2="161" y1="208.2344" y2="239.9448"/><polygon fill="#181818" points="157,229.9448,161,239.9448,165,229.9448,161,233.9448" style="stroke:#181818;stroke-width:1.0;"/><line style="stroke:#181818;stroke-width:1.0;" x1="161" x2="161" y1="336.98" y2="346.98"/><line style="stroke:#181818;stroke-width:1.0;" x1="161" x2="287.5" y1="346.98" y2="346.98"/><polygon fill="#181818" points="283.5,283.0112,287.5,273.0112,291.5,283.0112,287.5,279.0112" style="stroke:#181818;stroke-width:1.0;"/><line style="stroke:#181818;stroke-width:1.0;" x1="287.5" x2="287.5" y1="196.2344" y2="346.98"/><line style="stroke:#181818;stroke-width:1.0;" x1="287.5" x2="254" y1="196.2344" y2="196.2344"/><polygon fill="#181818" points="264,192.2344,254,196.2344,264,200.2344,260,196.2344" style="stroke:#181818;stroke-width:1.0;"/><line style="stroke:#181818;stroke-width:1.0;" x1="68" x2="34.5" y1="196.2344" y2="196.2344"/><polygon fill="#181818" points="30.5,269.0112,34.5,279.0112,38.5,269.0112,34.5,273.0112" style="stroke:#181818;stroke-width:1.0;"/><line style="stroke:#181818;stroke-width:1.0;" x1="34.5" x2="34.5" y1="196.2344" y2="358.98"/><line style="stroke:#181818;stroke-width:1.0;" x1="34.5" x2="161" y1="358.98" y2="358.98"/><line style="stroke:#181818;stroke-width:1.0;" x1="161" x2="161" y1="358.98" y2="378.98"/><polygon fill="#181818" points="157,368.98,161,378.98,165,368.98,161,372.98" style="stroke:#181818;stroke-width:1.0;"/><line style="stroke:#181818;stroke-width:1.0;" x1="161" x2="161" y1="164.2344" y2="184.2344"/><polygon fill="#181818" points="157,174.2344,161,184.2344,165,174.2344,161,178.2344" style="stroke:#181818;stroke-width:1.0;"/><line style="stroke:#181818;stroke-width:1.0;" x1="161" x2="161" y1="412.9487" y2="432.9487"/><polygon fill="#181818" points="157,422.9487,161,432.9487,165,422.9487,161,426.9487" style="stroke:#181818;stroke-width:1.0;"/><line style="stroke:#181818;stroke-width:1.0;" x1="161" x2="161" y1="30" y2="76.2969"/><polygon fill="#181818" points="157,66.2969,161,76.2969,165,66.2969,161,70.2969" style="stroke:#181818;stroke-width:1.0;"/><line style="stroke:#181818;stroke-width:1.0;" x1="161" x2="161" y1="559.1831" y2="579.1831"/><polygon fill="#181818" points="157,569.1831,161,579.1831,165,569.1831,161,573.1831" style="stroke:#181818;stroke-width:1.0;"/><line style="stroke:#181818;stroke-width:1.0;" x1="161" x2="161" y1="722.8311" y2="751.9287"/><polygon fill="#181818" points="157,741.9287,161,751.9287,165,741.9287,161,745.9287" style="stroke:#181818;stroke-width:1.0;"/><line style="stroke:#181818;stroke-width:1.0;" x1="161" x2="161" y1="657.1519" y2="688.8623"/><polygon fill="#181818" points="157,678.8623,161,688.8623,165,678.8623,161,682.8623" style="stroke:#181818;stroke-width:1.0;"/><line style="stroke:#181818;stroke-width:1.0;" x1="161" x2="161" y1="785.8975" y2="795.8975"/><line style="stroke:#181818;stroke-width:1.0;" x1="161" x2="283" y1="795.8975" y2="795.8975"/><polygon fill="#181818" points="279,731.9287,283,721.9287,287,731.9287,283,727.9287" style="stroke:#181818;stroke-width:1.0;"/><line style="stroke:#181818;stroke-width:1.0;" x1="283" x2="283" y1="645.1519" y2="795.8975"/><line style="stroke:#181818;stroke-width:1.0;" x1="283" x2="271" y1="645.1519" y2="645.1519"/><polygon fill="#181818" points="281,641.1519,271,645.1519,281,649.1519,277,645.1519" style="stroke:#181818;stroke-width:1.0;"/><line style="stroke:#181818;stroke-width:1.0;" x1="51" x2="39" y1="645.1519" y2="645.1519"/><polygon fill="#181818" points="35,717.9287,39,727.9287,43,717.9287,39,721.9287" style="stroke:#181818;stroke-width:1.0;"/><line style="stroke:#181818;stroke-width:1.0;" x1="39" x2="39" y1="645.1519" y2="807.8975"/><line style="stroke:#181818;stroke-width:1.0;" x1="39" x2="161" y1="807.8975" y2="807.8975"/><line style="stroke:#181818;stroke-width:1.0;" x1="161" x2="161" y1="807.8975" y2="827.8975"/><polygon fill="#181818" points="157,817.8975,161,827.8975,165,817.8975,161,821.8975" style="stroke:#181818;stroke-width:1.0;"/><line style="stroke:#181818;stroke-width:1.0;" x1="161" x2="161" y1="613.1519" y2="633.1519"/><polygon fill="#181818" points="157,623.1519,161,633.1519,165,623.1519,161,627.1519" style="stroke:#181818;stroke-width:1.0;"/><line style="stroke:#181818;stroke-width:1.0;" x1="161" x2="161" y1="861.8662" y2="881.8662"/><polygon fill="#181818" points="157,871.8662,161,881.8662,165,871.8662,161,875.8662" style="stroke:#181818;stroke-width:1.0;"/><line style="stroke:#181818;stroke-width:1.0;" x1="161" x2="161" y1="466.9175" y2="525.2144"/><polygon fill="#181818" points="157,515.2144,161,525.2144,165,515.2144,161,519.2144" style="stroke:#181818;stroke-width:1.0;"/><line style="stroke:#181818;stroke-width:1.0;" x1="161" x2="161" y1="1008.1006" y2="1028.1006"/><polygon fill="#181818" points="157,1018.1006,161,1028.1006,165,1018.1006,161,1022.1006" style="stroke:#181818;stroke-width:1.0;"/><line style="stroke:#181818;stroke-width:1.0;" x1="161" x2="161" y1="1106.0693" y2="1137.7798"/><polygon fill="#181818" points="157,1127.7798,161,1137.7798,165,1127.7798,161,1131.7798" style="stroke:#181818;stroke-width:1.0;"/><line style="stroke:#181818;stroke-width:1.0;" x1="161" x2="161" y1="1171.7485" y2="1181.7485"/><line style="stroke:#181818;stroke-width:1.0;" x1="161" x2="282.5" y1="1181.7485" y2="1181.7485"/><polygon fill="#181818" points="278.5,1146.3618,282.5,1136.3618,286.5,1146.3618,282.5,1142.3618" style="stroke:#181818;stroke-width:1.0;"/><line style="stroke:#181818;stroke-width:1.0;" x1="282.5" x2="282.5" y1="1094.0693" y2="1181.7485"/><line style="stroke:#181818;stroke-width:1.0;" x1="282.5" x2="270.5" y1="1094.0693" y2="1094.0693"/><polygon fill="#181818" points="280.5,1090.0693,270.5,1094.0693,280.5,1098.0693,276.5,1094.0693" style="stroke:#181818;stroke-width:1.0;"/><line style="stroke:#181818;stroke-width:1.0;" x1="51.5" x2="39.5" y1="1094.0693" y2="1094.0693"/><polygon fill="#181818" points="35.5,1132.3618,39.5,1142.3618,43.5,1132.3618,39.5,1136.3618" style="stroke:#181818;stroke-width:1.0;"/><line style="stroke:#181818;stroke-width:1.0;" x1="39.5" x2="39.5" y1="1094.0693" y2="1193.7485"/><line style="stroke:#181818;stroke-width:1.0;" x1="39.5" x2="161" y1="1193.7485" y2="1193.7485"/><line style="stroke:#181818;stroke-width:1.0;" x1="161" x2="161" y1="1193.7485" y2="1213.7485"/><polygon fill="#181818" points="157,1203.7485,161,1213.7485,165,1203.7485,161,1207.7485" style="stroke:#181818;stroke-width:1.0;"/><line style="stroke:#181818;stroke-width:1.0;" x1="161" x2="161" y1="1062.0693" y2="1082.0693"/><polygon fill="#181818" points="157,1072.0693,161,1082.0693,165,1072.0693,161,1076.0693" style="stroke:#181818;stroke-width:1.0;"/><line style="stroke:#181818;stroke-width:1.0;" x1="161" x2="161" y1="1237.7485" y2="1269.459"/><polygon fill="#181818" points="157,1259.459,161,1269.459,165,1259.459,161,1263.459" style="stroke:#181818;stroke-width:1.0;"/><line style="stroke:#181818;stroke-width:1.0;" x1="161" x2="161" y1="1303.4277" y2="1313.4277"/><line style="stroke:#181818;stroke-width:1.0;" x1="161" x2="289" y1="1313.4277" y2="1313.4277"/><polygon fill="#181818" points="285,1278.041,289,1268.041,293,1278.041,289,1274.041" style="stroke:#181818;stroke-width:1.0;"/><line style="stroke:#181818;stroke-width:1.0;" x1="289" x2="289" y1="1225.7485" y2="1313.4277"/><line style="stroke:#181818;stroke-width:1.0;" x1="289" x2="277" y1="1225.7485" y2="1225.7485"/><polygon fill="#181818" points="287,1221.7485,277,1225.7485,287,1229.7485,283,1225.7485" style="stroke:#181818;stroke-width:1.0;"/><line style="stroke:#181818;stroke-width:1.0;" x1="45" x2="33" y1="1225.7485" y2="1225.7485"/><polygon fill="#181818" points="29,1264.041,33,1274.041,37,1264.041,33,1268.041" style="stroke:#181818;stroke-width:1.0;"/><line style="stroke:#181818;stroke-width:1.0;" x1="33" x2="33" y1="1225.7485" y2="1325.4277"/><line style="stroke:#181818;stroke-width:1.0;" x1="33" x2="161" y1="1325.4277" y2="1325.4277"/><line style="stroke:#181818;stroke-width:1.0;" x1="161" x2="161" y1="1325.4277" y2="1345.4277"/><polygon fill="#181818" points="157,1335.4277,161,1345.4277,165,1335.4277,161,1339.4277" style="stroke:#181818;stroke-width:1.0;"/><line style="stroke:#181818;stroke-width:1.0;" x1="161" x2="161" y1="1379.3965" y2="1399.3965"/><polygon fill="#181818" points="157,1389.3965,161,1399.3965,165,1389.3965,161,1393.3965" style="stroke:#181818;stroke-width:1.0;"/><line style="stroke:#181818;stroke-width:1.0;" x1="161" x2="161" y1="915.835" y2="974.1318"/><polygon fill="#181818" points="157,964.1318,161,974.1318,165,964.1318,161,968.1318" style="stroke:#181818;stroke-width:1.0;"/><line style="stroke:#181818;stroke-width:1.0;" x1="161" x2="161" y1="1433.3652" y2="1465.3652"/><polygon fill="#181818" points="157,1455.3652,161,1465.3652,165,1455.3652,161,1459.3652" style="stroke:#181818;stroke-width:1.0;"/><!--MD5=[db67e1a8a56fe120935a81a581837726]
@startuml
start
partition "[Base]Initialization State" {
    :[Base]InitializationState::OnEnter;
    :CustomState::OnEnter;

    while (did both states return 'true'?) is (no)
        :[Base]InitializationState::OnUpdate;
        :CustomState::OnUpdate;
    endwhile (yes)

    :CustomState::OnExit;
    :[Base]InitializationState::OnExit;
}
partition "Running State" {
    :RunningState::OnEnter;
    :CustomState::OnEnter;

    while (did the running state return 'true'?) is (no)
        :RunningState::OnUpdate;
        :CustomState::OnUpdate;
    endwhile (yes)

    :CustomState::OnExit;
    :RunningState::OnExit;
}
partition "ShutdownState" {
    :CustomState::OnEnter;
    :ShutdownState::OnEnter;

    while (did the custom state return 'true'?) is (no)
        :CustomState::OnUpdate;
    endwhile (yes)

    while (did the shutdown state return 'true'?) is (no)
        :ShutdownState::OnUpdate;
    endwhile (yes)

    :CustomState::OnExit;
    :ShutdownState::OnExit;
}
stop
@enduml

PlantUML version 1.2022.2beta5(Unknown compile time)
(GPL source distribution)
Java Runtime: Java(TM) SE Runtime Environment
JVM: Java HotSpot(TM) 64-Bit Server VM
Default Encoding: UTF-8
Language: en
Country: US
--></g></svg>